<svg viewBox="0 0 128 128" fill="none" xmlns="http://www.w3.org/2000/svg">
    <circle cx="64" cy="64" r="64" transform="rotate(-45 64 64)" fill="#4C73E6"/>
    <circle cx="64" cy="64" r="64" transform="rotate(-45 64 64)" fill="url(#paint0_linear_48_2)"/>
    <path d="M88.9436 101.415C91.2301 101.415 93.1008 99.5445 93.1008 97.258V68.1572H84.7863V97.258C84.7863 99.5445 86.6571 101.415 88.9436 101.415ZM39.0564 101.415C41.3429 101.415 43.2137 99.5445 43.2137 97.258V51.5281H34.8991V97.258C34.8991 99.5445 36.7699 101.415 39.0564 101.415ZM97.2581 59.8426H93.1008V30.7418C93.1008 28.4553 91.2301 26.5845 88.9436 26.5845C86.6571 26.5845 84.7863 28.4553 84.7863 30.7418V59.8426L80.629 59.8426C78.3425 59.8426 76.4718 61.7134 76.4718 63.9999C76.4718 66.2864 78.3425 68.1572 80.629 68.1572H97.2581C99.5446 68.1572 101.415 66.2864 101.415 63.9999C101.415 61.7134 99.5446 59.8426 97.2581 59.8426ZM55.6854 84.7862H59.8427V97.258C59.8427 99.5445 61.7135 101.415 64 101.415C66.2865 101.415 68.1572 99.5445 68.1572 97.258V84.7862H72.3145C74.601 84.7862 76.4718 82.9155 76.4718 80.629C76.4718 78.3425 74.601 76.4717 72.3145 76.4717H55.6854C53.399 76.4717 51.5282 78.3425 51.5282 80.629C51.5282 82.9155 53.399 84.7862 55.6854 84.7862ZM64 26.5845C61.7135 26.5845 59.8427 28.4553 59.8427 30.7418L59.8427 76.4717H68.1572V30.7418C68.1572 28.4553 66.2865 26.5845 64 26.5845ZM51.5282 47.3708C51.5282 45.0843 49.6574 43.2136 47.3709 43.2136H43.2137V30.7418C43.2137 28.4553 41.3429 26.5845 39.0564 26.5845C36.7699 26.5845 34.8991 28.4553 34.8991 30.7418V43.2136H30.7419C28.4554 43.2136 26.5846 45.0843 26.5846 47.3708C26.5846 49.6573 28.4554 51.5281 30.7419 51.5281H47.3709C49.6574 51.5281 51.5282 49.6573 51.5282 47.3708Z"
          fill="white"/>
    <defs>
        <linearGradient id="paint0_linear_48_2" x1="128" y1="0" x2="2.28882e-05" y2="128"
                        gradientUnits="userSpaceOnUse">
            <stop offset="0.144708" stop-color="#4C73E6"/>
            <stop offset="0.854141" stop-color="#8C55E9"/>
        </linearGradient>
    </defs>
</svg>
