<svg xmlns="http://www.w3.org/2000/svg" fill="none" viewBox="0 0 128 128">
    <g clip-path="url(#a)">
        <circle cx="64" cy="64" r="64" fill="#4C73E6" transform="rotate(-45 64 64)" />
        <circle cx="64" cy="64" r="64" fill="url(#b)" transform="rotate(-45 64 64)" />
        <path fill="#fff"
            d="M88.944 101.415a4.17 4.17 0 0 0 4.157-4.157v-29.1h-8.315v29.1a4.17 4.17 0 0 0 4.158 4.157Zm-49.888 0a4.17 4.17 0 0 0 4.158-4.157v-45.73h-8.315v45.73a4.17 4.17 0 0 0 4.157 4.157Zm58.202-41.572h-4.157V30.742a4.17 4.17 0 0 0-4.157-4.158 4.17 4.17 0 0 0-4.158 4.158v29.1H80.63A4.17 4.17 0 0 0 76.472 64a4.17 4.17 0 0 0 4.157 4.157h16.63A4.17 4.17 0 0 0 101.414 64a4.17 4.17 0 0 0-4.157-4.157ZM55.686 84.786h4.157v12.472A4.17 4.17 0 0 0 64 101.415a4.17 4.17 0 0 0 4.157-4.157V84.786h4.157a4.17 4.17 0 0 0 4.158-4.157 4.17 4.17 0 0 0-4.157-4.157h-16.63a4.17 4.17 0 0 0-4.157 4.157 4.17 4.17 0 0 0 4.157 4.157ZM64 26.584a4.17 4.17 0 0 0-4.157 4.158v45.73h8.314v-45.73A4.17 4.17 0 0 0 64 26.584ZM51.528 47.371a4.17 4.17 0 0 0-4.157-4.157h-4.157V30.742a4.17 4.17 0 0 0-4.158-4.158 4.17 4.17 0 0 0-4.157 4.158v12.472h-4.157a4.17 4.17 0 0 0-4.157 4.157 4.17 4.17 0 0 0 4.157 4.157H47.37a4.17 4.17 0 0 0 4.157-4.157Z" />
    </g>
    <defs>
        <linearGradient id="b" x1="128" x2="0" y1="0" y2="128" gradientUnits="userSpaceOnUse">
            <stop offset=".145" stop-color="#4C73E6" />
            <stop offset=".854" stop-color="#8C55E9" />
        </linearGradient>
        <clipPath id="a">
            <path fill="#fff" d="M0 0h128v128H0z" />
        </clipPath>
    </defs>
</svg>